<?xml version="1.0" encoding="UTF-8" standalone="no"?>
<!-- Created with Inkscape (http://www.inkscape.org/) -->

<svg
   xmlns:dc="http://purl.org/dc/elements/1.1/"
   xmlns:cc="http://creativecommons.org/ns#"
   xmlns:rdf="http://www.w3.org/1999/02/22-rdf-syntax-ns#"
   xmlns:svg="http://www.w3.org/2000/svg"
   xmlns="http://www.w3.org/2000/svg"
   xmlns:sodipodi="http://sodipodi.sourceforge.net/DTD/sodipodi-0.dtd"
   xmlns:inkscape="http://www.inkscape.org/namespaces/inkscape"
   width="36.201679mm"
   height="36.201679mm"
   viewBox="0 0 36.20168 36.20168"
   version="1.1"
   id="svg8"
   inkscape:version="0.92.1 r15371"
   sodipodi:docname="loader_2.svg">
  <defs
     id="defs2" />
  <sodipodi:namedview
     id="base"
     pagecolor="#ffffff"
     bordercolor="#666666"
     borderopacity="1.0"
     inkscape:pageopacity="0.0"
     inkscape:pageshadow="2"
     inkscape:zoom="3.4999042"
     inkscape:cx="41.330812"
     inkscape:cy="64.403797"
     inkscape:document-units="mm"
     inkscape:current-layer="layer1"
     showgrid="false"
     fit-margin-top="0"
     fit-margin-left="0"
     fit-margin-right="0"
     fit-margin-bottom="0"
     inkscape:window-width="1440"
     inkscape:window-height="837"
     inkscape:window-x="-8"
     inkscape:window-y="-8"
     inkscape:window-maximized="1" />
  <metadata
     id="metadata5">
    <rdf:RDF>
      <cc:Work
         rdf:about="">
        <dc:format>image/svg+xml</dc:format>
        <dc:type
           rdf:resource="http://purl.org/dc/dcmitype/StillImage" />
        <dc:title></dc:title>
      </cc:Work>
    </rdf:RDF>
  </metadata>
  <g
     inkscape:label="Layer 1"
     inkscape:groupmode="layer"
     id="layer1"
     transform="translate(-91.238942,-90.21733)">
    <path
       inkscape:connector-curvature="0"
       id="path31284"
       d="m 108.08128,120.95562 -0.77003,-0.52951 -0.69292,-0.25331 -0.69291,-0.25333 -0.89089,-0.009 -0.8909,-0.009 -0.78261,-0.21718 -0.78261,-0.21717 -0.66511,-0.66479 -0.6651,-0.66478 0.0619,-0.74946 0.0619,-0.74945 0.59392,-0.26679 0.59393,-0.26679 0.75687,-0.96997 0.75688,-0.96998 h 1.23787 1.23787 l 0.43047,-0.45798 0.43045,-0.45799 v -0.39764 -0.39766 l -0.69291,-0.97414 -0.69292,-0.97414 v -0.43418 -0.43419 l 0.2206,-0.13627 0.22061,-0.13628 -0.0967,-0.72085 -0.0967,-0.72086 -0.44522,-1.03443 -0.44521,-1.03443 h -0.40831 -0.40831 l -0.45321,0.42558 -0.45321,0.42556 -0.91108,-0.83941 -0.91108,-0.83939 -0.92519,0.0981 -0.925195,0.0981 -0.566432,0.14512 -0.566434,0.14511 0.148829,-0.47251 0.148829,-0.4725 0.803668,-1.1873 0.803675,-1.18729 0.87924,-1.08835 0.87924,-1.08835 0.71445,-0.643145 0.71446,-0.643162 0.66153,-0.12432 0.66154,-0.124319 0.92227,0.119293 0.92227,0.119291 0.46799,0.132981 0.46798,0.13298 -0.14964,-0.474205 -0.14964,-0.474206 -0.68343,-1.441312 -0.68342,-1.441313 0.0966,-0.251542 0.0966,-0.251542 0.79822,-0.263311 0.79822,-0.263312 0.31168,0.119548 0.31169,0.119547 v 1.151928 1.151927 l 0.30518,1.171121 0.30519,1.171122 0.0913,0.09132 0.0914,0.0913 1.53372,-0.323735 1.53372,-0.323735 0.8909,0.10488 0.89088,0.10488 1.24531,0.31574 1.2453,0.31575 0.87033,0.765731 0.87033,0.76573 0.42781,0.69189 0.42781,0.69188 -0.11202,0.29179 -0.11203,0.2918 h -0.49713 -0.49713 l -0.37891,0.74206 -0.37891,0.74206 -0.40915,0.36985 -0.40915,0.36985 -1.31431,-0.0836 -1.3143,-0.0837 0.12403,0.70322 0.12403,0.70321 0.11668,0.90249 0.11668,0.90249 -0.41909,0.8211 -0.41909,0.82109 -0.004,0.45311 -0.004,0.45313 0.52636,1.68199 0.52636,1.682 0.0659,0.25032 0.0659,0.25032 0.5129,0.19492 0.5129,0.19491 h 0.544 0.544 l 0.56902,-0.59365 0.56902,-0.59364 h 0.13159 0.13159 l 0.1357,1.53358 0.13572,1.53359 0.10827,0.90954 0.10827,0.90954 -0.46211,0.52134 -0.4621,0.52133 -1.72636,0.89424 -1.72636,0.89424 h -2.84895 -2.84895 l -0.77004,-0.52953 z"
       style="fill:#c1c1c1;stroke-width:0.19792885" />
    <path
       inkscape:connector-curvature="0"
       id="path31282"
       d="m 108.59334,121.18468 -0.49019,-0.28262 -0.98988,-0.49805 -0.98988,-0.49805 -0.7919,-0.006 -0.7919,-0.006 -0.88693,-0.20427 -0.88692,-0.20426 -0.62388,-0.47563 -0.62389,-0.47563 -0.12648,-0.67388 -0.12647,-0.67387 0.11729,-0.30553 0.1173,-0.30553 0.46982,-0.11786 0.46981,-0.11786 0.8522,-1.10223 0.85219,-1.10223 0.75433,0.0967 0.75434,0.0967 0.60423,-0.1732 0.60422,-0.17321 0.26845,-0.35374 0.26844,-0.35373 0.006,-0.51697 0.006,-0.51696 -0.5861,-0.73717 -0.5861,-0.73716 -0.11778,-0.37092 -0.11778,-0.37093 0.20894,-0.39023 0.20895,-0.39023 -1.6e-4,-0.55718 -1.5e-4,-0.5572 -0.58537,-1.23675 -0.58537,-1.23676 h -0.16791 -0.16793 l -0.64872,0.47839 -0.64871,0.47837 -0.79232,-0.79194 -0.79231,-0.79193 -1.12162,0.0879 -1.121629,0.0879 -0.445445,0.14983 -0.445446,0.14983 v -0.1993 -0.19931 l 1.15205,-1.75312 1.15204,-1.75312 1.15656,-1.24815 1.15656,-1.248165 0.55221,-0.285423 0.55222,-0.285427 h 0.77026 0.77028 l 0.96262,0.289566 0.9626,0.289564 0.0779,-0.0778 0.0779,-0.07785 -0.90098,-1.90111 -0.901,-1.901109 0.10261,-0.267257 0.1026,-0.267258 0.86258,-0.241392 0.86258,-0.241395 0.18415,0.113751 0.18413,0.113751 0.11525,1.836938 0.11525,1.836939 0.23282,0.64959 0.23281,0.649592 0.32484,-0.0962 0.32483,-0.0962 1.28684,-0.28349 1.28684,-0.283492 1.21089,0.150633 1.21088,0.150634 0.98848,0.328165 0.98849,0.32817 0.79711,0.681965 0.79712,0.68198 0.41,0.82828 0.41,0.82829 -0.10207,0.16508 -0.10208,0.16508 h -0.45659 -0.45658 l -0.67009,1.03888 -0.6701,1.03888 -1.03343,0.0596 -1.03344,0.0596 -0.43012,-0.23008 -0.43012,-0.23007 0.1328,0.962 0.1328,0.96201 0.11523,0.80613 0.11522,0.80614 -0.41777,0.81851 -0.41776,0.8185 7.5e-4,0.55205 7.5e-4,0.55206 0.48989,1.38518 0.48991,1.38517 0.004,0.42123 0.004,0.42123 0.54443,0.21507 0.54443,0.21508 0.54919,0.1284 0.54918,0.12839 0.67487,-0.71523 0.67487,-0.71522 h 0.0832 0.0832 l 0.15238,1.92934 0.15238,1.92935 0.009,0.66635 0.009,0.66635 -0.47912,0.36496 -0.47911,0.36495 -0.69242,0.35386 -0.69242,0.35388 -0.75999,0.48283 -0.75999,0.48282 -2.90781,0.0524 -2.9078,0.0524 -0.49019,-0.28263 z m 0.18881,-6.47699 -0.0139,-0.44523 -0.15405,-0.39446 -0.15406,-0.39446 -0.32697,0.63198 -0.32696,0.63199 v 0.2077 0.20771 h 0.49494 0.49494 z m 1.94792,-0.3585 1.13462,-0.60585 0.59393,0.10788 0.59393,0.10787 0.25894,-0.16392 0.25895,-0.1639 -0.12701,-0.50586 -0.12703,-0.50585 -0.40419,-0.43364 -0.4042,-0.43366 -0.51964,0.12839 -0.51963,0.12837 -0.88066,0.0384 -0.88067,0.0384 -0.11265,-0.47151 -0.11267,-0.47149 -0.26826,0.32308 -0.26827,0.32308 h -0.27675 -0.27675 l 0.39474,0.77338 0.39473,0.77337 0.12953,0.80968 0.12954,0.80969 h 0.0774 0.0774 z m 2.31787,-5.13273 0.25475,-0.4947 0.13561,-0.81624 0.13562,-0.81624 -0.534,-0.41985 -0.534,-0.41984 -0.80391,-0.21638 -0.8039,-0.21636 -1.85703,0.0673 -1.85703,0.0673 -0.19371,0.3463 -0.1937,0.34629 h -0.30832 -0.3083 l 0.14801,0.34629 0.14799,0.3463 0.26914,0.98306 0.26913,0.98306 v 0.35754 0.35753 l 0.50782,0.193 0.50783,0.19298 h 0.0621 0.0621 l -0.19503,-0.914 -0.19503,-0.91399 0.22111,-0.48508 0.22112,-0.48506 0.44336,0.0386 0.44336,0.0387 0.64754,-0.14929 0.64754,-0.14928 0.10655,-0.17233 0.10656,-0.17232 h 0.58714 0.58714 l 0.21028,0.54418 0.21027,0.54418 -0.1135,0.79153 -0.11351,0.79152 -0.131,0.49471 -0.131,0.49471 0.54308,-0.49471 0.54308,-0.49471 z m 3.82554,-4.78874 0.23757,-0.23746 v -0.15406 -0.15406 l -0.54444,0.23122 -0.54443,0.23122 -0.18808,0.1603 -0.18807,0.16029 h 0.49494 0.49494 z"
       style="fill:#9d9d9d;stroke-width:0.19792885" />
    <path
       inkscape:connector-curvature="0"
       id="path31280"
       d="m 108.59334,121.18468 -0.49019,-0.28262 -0.98988,-0.49805 -0.98988,-0.49805 -0.7919,-0.006 -0.7919,-0.006 -0.88693,-0.20427 -0.88692,-0.20426 -0.62388,-0.47563 -0.62389,-0.47563 -0.12648,-0.67388 -0.12647,-0.67387 0.11729,-0.30553 0.1173,-0.30553 0.46982,-0.11786 0.46981,-0.11786 0.8522,-1.09907 0.85219,-1.09906 0.80928,0.11802 0.80927,0.11803 0.56043,-0.21297 0.56042,-0.21297 0.25731,-0.33851 0.2573,-0.33852 0.006,-0.51696 0.006,-0.51696 -0.5861,-0.73717 -0.5861,-0.73716 -0.11778,-0.37093 -0.11778,-0.37092 0.20894,-0.39023 0.20895,-0.39023 -1.6e-4,-0.55719 -1.5e-4,-0.55719 -0.58537,-1.23675 -0.58537,-1.23676 h -0.16791 -0.16793 l -0.64872,0.47838 -0.64871,0.47838 -0.79232,-0.79194 -0.79231,-0.79194 -1.12162,0.0879 -1.121629,0.0879 -0.445445,0.14984 -0.445446,0.14983 v -0.1993 -0.19931 l 1.15205,-1.75312 1.15204,-1.75312 1.15656,-1.24816 1.15656,-1.248155 0.55221,-0.285425 0.55222,-0.285426 h 0.77026 0.77028 l 0.96262,0.289565 0.9626,0.289566 0.0779,-0.0778 0.0779,-0.07785 -0.90098,-1.90111 -0.901,-1.901109 0.10261,-0.267257 0.1026,-0.267258 0.86258,-0.241392 0.86258,-0.241394 0.18415,0.11375 0.18413,0.113751 0.11525,1.836938 0.11525,1.836939 0.23282,0.64959 0.23281,0.649582 0.32484,-0.0962 0.32483,-0.0962 1.28684,-0.28349 1.28684,-0.283492 1.21089,0.150633 1.21088,0.150634 0.98848,0.328165 0.98849,0.32816 0.79711,0.681975 0.79712,0.68198 0.41,0.82828 0.41,0.82829 -0.10207,0.16508 -0.10208,0.16508 h -0.47717 -0.47717 l -0.69654,1.08835 -0.69654,1.08834 h -1.00535 -1.00536 l -0.38293,-0.20483 -0.38294,-0.20485 v 0.39905 0.39906 l 0.22865,1.33937 0.22864,1.33937 -0.42662,0.83312 -0.42662,0.83312 7.5e-4,0.55206 7.5e-4,0.55206 0.48989,1.38516 0.48991,1.38519 0.004,0.42122 0.004,0.42122 0.54443,0.21509 0.54443,0.21507 0.54919,0.1284 0.54918,0.12839 0.67487,-0.71522 0.67487,-0.71524 h 0.0832 0.0832 l 0.15238,1.92935 0.15238,1.92935 0.009,0.66635 0.009,0.66635 -0.47912,0.36495 -0.47911,0.36495 -0.69242,0.35387 -0.69242,0.35388 -0.75999,0.48282 -0.75999,0.48284 -2.90781,0.0524 -2.9078,0.0524 -0.49019,-0.28261 z m -4.35072,-6.27504 v -0.20094 l -0.29696,0.24635 -0.29697,0.24633 v 0.0685 0.0685 l 0.29697,-0.1139 0.29696,-0.1139 z m 6.13725,0.19006 0.49494,-0.0626 0.73854,-0.25298 0.73854,-0.25298 0.18523,0.11443 0.18524,0.11442 0.51662,-0.19634 0.51663,-0.19631 0.11354,-0.29575 0.11354,-0.29573 -0.46135,-0.94399 -0.46133,-0.94399 0.0321,-0.10737 0.0321,-0.10737 -0.62651,-0.0477 -0.6265,-0.0477 -0.2012,-0.20512 -0.20121,-0.20511 1.03675,-0.92605 1.03675,-0.92603 0.27164,-0.69259 0.27163,-0.69259 -0.0789,-0.69258 -0.0789,-0.69259 -0.0709,-0.2109 -0.0709,-0.21091 -1.15857,-0.25568 -1.15857,-0.25567 -0.49494,-0.14488 -0.49494,-0.14486 -1.53145,0.14993 -1.53145,0.14992 -0.69578,0.22952 -0.69577,0.22952 v 0.0587 0.0587 l 0.30939,0.86587 0.30939,0.86588 0.20289,1.08835 0.20289,1.08836 0.31031,0.3463 0.3103,0.34628 h 0.45258 0.45256 l 0.14092,0.22791 0.14092,0.22789 -0.37391,0.27328 -0.3739,0.27328 0.0626,0.59714 0.0626,0.59713 -0.18815,0.23739 -0.18814,0.23739 -0.24361,0.75562 -0.24361,0.75562 -0.27713,-0.10629 -0.27713,-0.1063 v 0.15869 0.1587 l 0.14638,0.14629 0.14637,0.14631 1.38794,-0.10863 1.38793,-0.10863 z m -0.70292,-3.3791 -0.11653,-0.46411 0.0632,-0.75262 0.0633,-0.75262 0.39595,-0.21792 0.39595,-0.21792 0.0563,-0.0233 0.0563,-0.0233 -0.18507,-0.82327 -0.18507,-0.82328 0.29134,-0.29119 0.29132,-0.29119 h 0.16969 0.1697 l 0.3111,0.31096 0.31111,0.31095 0.0196,0.23322 0.0196,0.23322 0.0469,0.50982 0.0469,0.50983 -0.15918,0.43011 -0.15919,0.43011 h -0.30335 -0.30334 v 0.80567 0.80567 l -0.28282,0.28268 -0.28282,0.28269 h -0.30733 -0.30734 z m -1.26016,-1.10867 -0.27125,-0.16756 -0.14588,-0.96025 -0.14587,-0.96025 0.16927,-0.44523 0.16928,-0.44523 h 0.28772 0.28773 l 0.3111,0.31096 0.31111,0.31095 v 0.94461 0.9446 l -0.35099,0.31748 -0.35097,0.31749 z m 8.8256,-6.68881 0.30911,-0.74205 0.22522,-0.16138 0.22522,-0.16137 -0.44269,0.12436 -0.44267,0.12435 -0.58147,0.5812 -0.58146,0.58119 h -0.31219 -0.31219 v 0.19788 0.19787 h 0.802 0.802 z m -2.17709,0.41225 -0.13199,-0.13192 -0.13198,0.13192 -0.13198,0.13193 h 0.26396 0.26397 z"
       style="fill:#8c8c8c;stroke-width:0.19792885" />
    <path
       inkscape:connector-curvature="0"
       id="path31278"
       d="m 108.79607,121.31744 -0.29697,-0.12912 -0.83352,-0.56526 -0.83351,-0.56526 -1.62334,-0.18153 -1.62333,-0.18153 -0.86594,-0.38285 -0.86592,-0.38287 -0.30468,-0.72886 -0.30469,-0.72886 0.11167,-0.44472 0.11167,-0.44472 0.48387,-0.12138 0.48387,-0.12139 0.7483,-0.93938 0.74831,-0.93937 0.0221,-0.0481 0.0222,-0.0481 1.29959,-0.0581 1.2996,-0.0581 0.30313,-0.25146 0.30313,-0.25146 0.19496,-0.55899 0.19496,-0.55899 -0.32808,-0.48672 -0.32808,-0.48672 -0.42291,-0.64011 -0.4229,-0.6401 0.10504,-0.42993 0.10504,-0.42993 0.16888,-0.21755 0.16889,-0.21756 -0.26998,-0.8708 -0.26998,-0.87079 -0.34494,-0.841 -0.34495,-0.841 -0.32497,0.004 -0.32496,0.004 -0.49494,0.38697 -0.49493,0.38696 -0.16126,0.004 -0.16127,0.004 -0.49858,-0.59224 -0.49856,-0.59225 -0.62701,-0.16345 -0.62701,-0.16347 -0.7919,0.148 -0.791909,0.14801 -0.364897,0.14123 -0.364897,0.14125 0.440566,-0.86317 0.440566,-0.86317 0.419271,-0.59844 0.41928,-0.59844 1.1158,-1.38645 1.1158,-1.386445 0.468,-0.42642 0.46801,-0.426427 0.83339,-0.245618 0.83339,-0.245618 1.04738,0.212047 1.04738,0.212045 0.34646,0.134871 0.34646,0.13487 v -0.225533 -0.225538 l -0.87531,-1.757935 -0.87531,-1.757935 0.23188,-0.291506 0.23189,-0.291506 0.76593,-0.242822 0.76593,-0.242823 0.17143,0.270458 0.17142,0.270458 0.003,1.128081 0.003,1.128082 0.20438,0.949679 0.20439,0.94968 0.15728,0.25305 0.15727,0.25305 1.27164,-0.2996 1.27164,-0.299592 1.11751,-0.0029 1.1175,-0.0029 1.2582,0.390552 1.25821,0.39055 0.74595,0.509455 0.74595,0.50946 0.4914,0.77805 0.49139,0.77806 v 0.3997 0.39969 h -0.49677 -0.49677 l -0.60943,0.98999 -0.60944,0.99 -0.51628,0.1295 -0.51629,0.12953 -0.94645,-0.19379 -0.94645,-0.19379 -0.0689,0.20655 -0.0689,0.20656 0.28354,1.37743 0.28355,1.37742 -0.41738,1.00653 -0.41738,1.00653 v 0.52747 0.52746 l 0.22247,0.55706 0.22246,0.55707 0.33419,1.28623 0.33418,1.28623 1.05473,0.28334 1.05472,0.28335 0.65096,-0.70999 0.65096,-0.70997 0.11337,0.11333 0.11338,0.11331 0.009,1.20378 0.009,1.20379 0.16838,0.87162 0.16837,0.87162 -0.18002,0.51355 -0.18002,0.51355 -0.6404,0.37916 -0.64039,0.37916 -1.30621,0.66411 -1.3062,0.66411 -2.7523,0.0752 -2.7523,0.0752 z m 4.35546,-1.74754 0.29696,-0.28699 -0.46737,-0.38299 -0.46738,-0.38301 -0.32452,0.008 -0.32453,0.008 -1.08887,0.25391 -1.08886,0.25389 -0.069,0.35713 -0.069,0.35713 0.26695,0.17318 0.26695,0.17318 1.38583,-0.1226 1.38583,-0.1226 0.29696,-0.287 z m -8.90891,-4.66026 v -0.20094 l -0.29696,0.24635 -0.29697,0.24633 v 0.0685 0.0685 l 0.29697,-0.1139 0.29696,-0.1139 z m 6.13725,0.19006 0.49494,-0.0626 0.73854,-0.25298 0.73854,-0.25298 0.18523,0.11443 0.18524,0.11442 0.51662,-0.19634 0.51663,-0.19631 0.11354,-0.29575 0.11354,-0.29573 -0.46135,-0.94399 -0.46133,-0.94399 0.0321,-0.10737 0.0321,-0.10737 -0.62651,-0.0477 -0.6265,-0.0477 -0.2012,-0.20512 -0.20121,-0.20511 1.03675,-0.92605 1.03675,-0.92603 0.27164,-0.69259 0.27163,-0.69259 -0.0789,-0.69258 -0.0789,-0.69259 -0.0709,-0.2109 -0.0709,-0.21091 -1.15857,-0.25568 -1.15857,-0.25567 -0.49494,-0.14488 -0.49494,-0.14486 -1.53145,0.14993 -1.53145,0.14992 -0.69578,0.22952 -0.69577,0.22952 v 0.0587 0.0587 l 0.30939,0.86587 0.30939,0.86588 0.20289,1.08835 0.20289,1.08836 0.31031,0.3463 0.3103,0.34628 h 0.45258 0.45256 l 0.14092,0.22791 0.14092,0.22789 -0.37391,0.27328 -0.3739,0.27328 0.0626,0.59714 0.0626,0.59713 -0.18815,0.23739 -0.18814,0.23739 -0.24361,0.75562 -0.24361,0.75562 -0.27713,-0.10629 -0.27713,-0.1063 v 0.15869 0.1587 l 0.14638,0.14629 0.14637,0.14631 1.38794,-0.10863 1.38793,-0.10863 z m -0.70292,-3.3791 -0.11653,-0.46411 0.0632,-0.75262 0.0633,-0.75262 0.39595,-0.21792 0.39595,-0.21792 0.0563,-0.0233 0.0563,-0.0233 -0.18507,-0.82327 -0.18507,-0.82328 0.29134,-0.29119 0.29132,-0.29119 h 0.16969 0.1697 l 0.3111,0.31096 0.31111,0.31095 0.0196,0.23322 0.0196,0.23322 0.0469,0.50982 0.0469,0.50983 -0.15918,0.43011 -0.15919,0.43011 h -0.30335 -0.30334 v 0.80567 0.80567 l -0.28282,0.28268 -0.28282,0.28269 h -0.30733 -0.30734 z m -1.26016,-1.10867 -0.27125,-0.16756 -0.14588,-0.96025 -0.14587,-0.96025 0.16927,-0.44523 0.16928,-0.44523 h 0.28772 0.28773 l 0.3111,0.31096 0.31111,0.31095 v 0.94461 0.9446 l -0.35099,0.31748 -0.35097,0.31749 z m 8.8256,-6.68881 0.30911,-0.74205 0.22522,-0.16138 0.22522,-0.16137 -0.44269,0.12436 -0.44267,0.12435 -0.58147,0.5812 -0.58146,0.58119 h -0.31219 -0.31219 v 0.19788 0.19787 h 0.802 0.802 z m -2.17709,0.41225 -0.13199,-0.13192 -0.13198,0.13192 -0.13198,0.13193 h 0.26396 0.26397 z m -10.97622,-1.00589 0.30377,-0.34629 0.32685,-0.64491 0.32684,-0.64491 -0.21095,-0.39397 -0.21095,-0.39397 h -0.58987 -0.58987 l -0.39231,0.64311 -0.39229,0.64312 -7.3e-4,0.61013 -7.5e-4,0.61014 0.13198,0.13192 0.13198,0.13193 h 0.43126 0.43126 z m 7.87285,-0.89837 0.49318,-0.24939 0.0728,-0.37772 0.0728,-0.37771 -0.35633,-0.26043 -0.35633,-0.26043 -0.60559,0.003 -0.60557,0.003 -0.46064,0.12329 -0.46064,0.12329 -0.18704,0.49172 -0.18704,0.49172 0.22648,0.27276 0.22647,0.27275 0.81715,-0.003 0.81716,-0.003 z m 2.47588,-0.93027 0.12511,-0.39399 -0.12345,-0.19965 -0.12345,-0.19966 h -0.39048 -0.39048 l -0.11396,0.29682 -0.11395,0.29683 0.11395,0.29682 0.11396,0.29683 h 0.38882 0.38882 z"
       style="fill:#888888;stroke-width:0.19792885" />
    <path
       inkscape:connector-curvature="0"
       id="path31276"
       d="m 108.79607,121.31744 -0.29697,-0.12912 -0.83352,-0.56526 -0.83351,-0.56526 -1.62334,-0.18153 -1.62333,-0.18153 -0.86594,-0.38285 -0.86592,-0.38287 -0.30468,-0.72886 -0.30469,-0.72886 0.11167,-0.44472 0.11167,-0.44472 0.48387,-0.12138 0.48387,-0.12139 0.7483,-0.93938 0.74831,-0.93937 0.0221,-0.0481 0.0222,-0.0481 1.29959,-0.0581 1.2996,-0.0581 0.30313,-0.25146 0.30313,-0.25146 0.19496,-0.55899 0.19496,-0.55899 -0.32808,-0.48672 -0.32808,-0.48672 -0.42291,-0.64011 -0.4229,-0.6401 0.10504,-0.42993 0.10504,-0.42993 0.16888,-0.21755 0.16889,-0.21756 -0.26998,-0.8708 -0.26998,-0.87079 -0.34494,-0.841 -0.34495,-0.841 -0.32497,0.004 -0.32496,0.004 -0.49494,0.38697 -0.49493,0.38696 -0.16126,0.004 -0.16127,0.004 -0.49858,-0.59224 -0.49856,-0.59225 -0.62701,-0.16345 -0.62701,-0.16347 -0.7919,0.148 -0.791909,0.14801 -0.364897,0.14123 -0.364897,0.14125 0.440566,-0.86317 0.440566,-0.86317 0.419271,-0.59844 0.41928,-0.59844 1.1158,-1.38645 1.1158,-1.386445 0.468,-0.42642 0.46801,-0.426427 0.83339,-0.245618 0.83339,-0.245618 1.04738,0.212047 1.04738,0.212045 0.34646,0.134871 0.34646,0.13487 v -0.225533 -0.225538 l -0.87531,-1.757935 -0.87531,-1.757935 0.23188,-0.291506 0.23189,-0.291506 0.76593,-0.242822 0.76593,-0.242823 0.17143,0.270458 0.17142,0.270458 0.003,1.128081 0.003,1.128082 0.20438,0.949679 0.20439,0.94968 0.15728,0.25305 0.15727,0.25305 1.27164,-0.2996 1.27164,-0.299592 1.11751,-0.0029 1.1175,-0.0029 1.2582,0.390552 1.25821,0.39055 0.74595,0.509455 0.74595,0.50946 0.4914,0.77805 0.49139,0.77806 v 0.3997 0.39969 h -0.49677 -0.49677 l -0.60943,0.98999 -0.60944,0.99 -0.51628,0.1295 -0.51629,0.12953 -0.94645,-0.19379 -0.94645,-0.19379 -0.0689,0.20655 -0.0689,0.20656 0.28354,1.37743 0.28355,1.37742 -0.41738,1.00653 -0.41738,1.00653 v 0.52747 0.52746 l 0.22247,0.55706 0.22246,0.55707 0.33419,1.28623 0.33418,1.28623 1.05473,0.28334 1.05472,0.28335 0.65096,-0.70999 0.65096,-0.70997 0.11337,0.11333 0.11338,0.11331 0.009,1.20378 0.009,1.20379 0.16838,0.87162 0.16837,0.87162 -0.18002,0.51355 -0.18002,0.51355 -0.6404,0.37916 -0.64039,0.37916 -1.30621,0.66411 -1.3062,0.66411 -2.7523,0.0752 -2.7523,0.0752 z m 4.35546,-1.74754 0.29696,-0.28699 -0.46737,-0.38299 -0.46738,-0.38301 -0.32452,0.008 -0.32453,0.008 -1.08887,0.25391 -1.08886,0.25389 -0.069,0.35713 -0.069,0.35713 0.26695,0.17318 0.26695,0.17318 1.38583,-0.1226 1.38583,-0.1226 0.29696,-0.287 z m -2.64609,-4.22966 1.16127,-0.42589 0.41716,-0.0963 0.41715,-0.0962 1.0213,0.51727 1.0213,0.51729 -0.12092,-0.84591 -0.12092,-0.84592 -0.30484,-1.13992 -0.30484,-1.13992 -0.30302,0.24945 -0.30302,0.24945 0.12825,-0.94222 0.12825,-0.94222 -0.49147,0.32186 -0.49146,0.32186 v -0.19641 -0.1964 l 0.33078,-0.27159 0.33077,-0.27157 0.56011,-0.87974 0.56012,-0.87974 -0.004,-0.60438 -0.004,-0.60437 -0.27544,-0.98942 -0.27545,-0.98941 -0.0177,0.24736 -0.0177,0.24735 -0.34646,-0.006 -0.34646,-0.006 -1.08886,-0.38286 -1.08887,-0.38283 -1.28684,-0.003 -1.28685,-0.004 -1.14748,0.26988 -1.14749,0.26987 -0.0927,0.0927 -0.0927,0.0927 0.50689,1.10665 0.50688,1.10665 0.19835,1.23108 0.19835,1.23106 -0.23398,0.14454 -0.23399,0.14454 0.64879,0.80693 0.64878,0.80694 -0.11248,1.08925 -0.11248,1.08926 -0.14796,0.2393 -0.14797,0.2393 -0.14202,-0.38262 -0.14203,-0.38264 -0.20756,0.52497 -0.20757,0.52495 -0.21342,0.13184 -0.21341,0.13183 0.0959,0.15515 0.0959,0.15516 1.46819,0.0388 1.46818,0.0388 1.16128,-0.42589 z m -0.71253,-3.5383 -0.20494,-0.38276 v -0.66777 -0.66777 l 0.26833,-0.3668 0.26834,-0.3668 0.30806,0.11816 0.30806,0.11816 -0.18044,-0.62888 -0.18045,-0.62887 v -0.52431 -0.52431 l 0.30146,-0.11563 0.30145,-0.11562 0.39146,0.39127 0.39147,0.39128 -0.003,0.84101 -0.003,0.84099 -0.17496,0.27618 -0.17496,0.27619 -0.31024,-0.11899 -0.31024,-0.11899 0.11679,0.58367 0.1168,0.58368 -0.24651,0.59483 -0.2465,0.59484 h -0.26599 -0.26597 l -0.20495,-0.38276 z m -1.55627,-1.5466 -0.1774,-0.34629 -0.11319,-0.73659 -0.11319,-0.7366 0.3508,-0.43302 0.35081,-0.43302 0.42776,0.42756 0.42777,0.42756 v 0.58075 0.58078 l -0.19308,0.50758 -0.19308,0.50759 h -0.2949 -0.29489 z m 7.63144,5.33158 0.24185,-0.15359 -0.58831,-0.22195 -0.58831,-0.22197 v 0.0656 0.0656 l 0.12017,0.31302 0.12017,0.313 0.22629,-0.003 0.22629,-0.003 0.24185,-0.15359 z m -10.85901,-0.33935 0.73681,0.12442 0.33464,-0.3696 0.33464,-0.3696 -1.08574,0.0177 -1.08574,0.0177 -0.44597,0.46278 -0.44598,0.46276 0.46027,-0.23527 0.46026,-0.23527 z m 1.54328,-5.3715 -0.13199,-0.13192 v 0.26384 0.26385 l 0.13199,-0.13193 0.13197,-0.13192 z m 10.83861,-6.12607 0.51175,-0.91518 -0.64113,0.12817 -0.64113,0.12816 -1.04154,0.63094 -1.04155,0.63095 v 0.15606 0.15607 h 1.17093 1.17093 z m -13.30188,-0.42052 0.30377,-0.34629 0.32685,-0.64491 0.32684,-0.64491 -0.21095,-0.39397 -0.21095,-0.39397 h -0.58987 -0.58987 l -0.39231,0.64311 -0.39229,0.64312 -7.3e-4,0.61013 -7.5e-4,0.61014 0.13198,0.13192 0.13198,0.13193 h 0.43126 0.43126 z m 7.87285,-0.89837 0.49318,-0.24939 0.0728,-0.37772 0.0728,-0.37771 -0.35633,-0.26043 -0.35633,-0.26043 -0.60559,0.003 -0.60557,0.003 -0.46064,0.12329 -0.46064,0.12329 -0.18704,0.49172 -0.18704,0.49172 0.22648,0.27276 0.22647,0.27275 0.81715,-0.003 0.81716,-0.003 z m 2.47588,-0.93027 0.12511,-0.39399 -0.12345,-0.19965 -0.12345,-0.19966 h -0.39048 -0.39048 l -0.11396,0.29682 -0.11395,0.29683 0.11395,0.29682 0.11396,0.29683 h 0.38882 0.38882 z"
       style="fill:#818181;stroke-width:0.19792885" />
    <path
       inkscape:connector-curvature="0"
       id="path31274"
       d="m 108.66086,121.15284 -0.54753,-0.28393 -0.65465,-0.4044 -0.65466,-0.40441 -1.52817,-0.18451 -1.52817,-0.18452 -0.62604,-0.20092 -0.62604,-0.20093 -0.51232,-0.51208 -0.51232,-0.51208 v -0.86348 -0.86348 h 0.37987 0.37987 l 0.59665,-0.64312 0.59666,-0.64312 0.35982,-0.44269 0.3598,-0.4427 1.24488,-0.0323 1.24488,-0.0324 0.501,-0.59514 0.50101,-0.59512 -0.12544,-0.49956 -0.12544,-0.49955 -0.48213,-0.57272 -0.48215,-0.57272 -0.12405,-0.49405 -0.12406,-0.49404 0.22922,-0.50286 0.22923,-0.50285 -0.11955,-0.42249 -0.11954,-0.42249 -0.51021,-1.23676 -0.5102,-1.23677 h -0.33955 -0.33956 l -0.53628,0.42164 -0.53627,0.42163 -0.78751,-0.76793 -0.78751,-0.76792 -1.04514,0.0246 -1.045155,0.0246 -0.429428,0.22971 -0.42943,0.22972 v -0.21468 -0.21467 l 0.326306,-0.63328 0.326306,-0.63329 0.514251,-0.69259 0.51425,-0.69259 1.27913,-1.56158 1.27913,-1.561565 0.78385,-0.350779 0.78385,-0.350775 0.9075,0.08401 0.9075,0.08401 0.52878,0.213339 0.52877,0.213335 0.29986,-0.067 0.29986,-0.067 -0.87813,-1.845321 -0.87813,-1.845318 v -0.257905 -0.257905 l 0.54443,-0.208621 0.54444,-0.208622 0.42883,-0.12027 0.42882,-0.120271 0.12141,1.343765 0.12142,1.343765 0.19382,1.080109 0.19382,1.080107 0.18392,0.183827 0.18391,0.18383 1.29045,-0.324 1.29044,-0.323995 h 1.02684 1.02683 l 1.33187,0.396455 1.33186,0.39646 0.57025,0.44284 0.57025,0.442835 0.35049,0.39746 0.35049,0.39747 0.30725,0.56203 0.30726,0.56204 -0.1071,0.27896 -0.1071,0.27895 h -0.39292 -0.39292 l -0.3557,0.50708 -0.35571,0.50705 -0.45232,0.56856 -0.45232,0.56855 -0.88033,-0.0718 -0.88032,-0.0718 -0.36916,-0.11712 -0.36915,-0.11711 -0.37444,0.49837 -0.37443,0.49837 -0.29947,-0.006 -0.29947,-0.006 -1.08886,-0.38286 -1.08887,-0.38283 -1.28684,-0.003 -1.28685,-0.004 -1.14749,0.26988 -1.14748,0.26987 -0.10446,0.10441 -0.10446,0.10442 0.30868,0.59663 0.30869,0.59665 0.27824,0.8564 0.27826,0.85639 0.1282,0.87408 0.12821,0.87407 -0.23213,0.1434 -0.23215,0.14341 0.64878,0.80693 0.64878,0.80694 -0.11247,1.08925 -0.11248,1.08925 -0.14797,0.23931 -0.14797,0.2393 -0.14202,-0.38262 -0.14202,-0.38264 -0.20757,0.52497 -0.20756,0.52495 -0.21342,0.13183 -0.21342,0.13184 0.0959,0.15515 0.0959,0.15516 1.46819,0.0388 1.46818,0.0388 1.16127,-0.4259 1.16127,-0.42589 0.41716,-0.0963 0.41715,-0.0962 1.0213,0.51728 1.0213,0.51728 -0.12092,-0.8459 -0.12092,-0.84593 -0.30484,-1.13992 -0.30484,-1.13991 -0.30302,0.24944 -0.30302,0.24945 0.12825,-0.94222 0.12825,-0.94222 -0.49147,0.32186 -0.49146,0.32187 v -0.18997 -0.18997 l 0.41647,-0.37673 0.41647,-0.37671 0.50052,-0.85368 0.50053,-0.85368 -0.12002,-0.9275 -0.12002,-0.9275 -0.12715,-0.44523 -0.12715,-0.44523 h 0.20682 0.20682 l 0.12581,1.03887 0.12582,1.03888 0.009,0.39576 0.009,0.39577 -0.39735,1.07428 -0.39736,1.07428 0.29529,0.90453 0.2953,0.90454 0.32849,1.16981 0.32848,1.1698 0.69243,0.24979 0.69243,0.24978 0.4084,0.0151 0.40841,0.0151 0.56902,-0.59364 0.56902,-0.59365 h 0.13123 0.13123 l 0.13574,2.40069 0.13574,2.40069 -0.3139,0.3467 -0.31391,0.34668 -1.02948,0.55058 -1.02948,0.55058 -0.69291,0.3556 -0.69292,0.35561 -2.71398,0.082 -2.71398,0.082 -0.54753,-0.28393 z m 6.35666,-1.15181 0.29916,-0.39576 0.006,-0.23448 0.006,-0.23446 -0.1965,-0.51661 -0.19651,-0.5166 -0.79256,-0.35468 -0.79257,-0.35468 -1.33715,0.34759 -1.33714,0.34756 -0.66771,0.20715 -0.66771,0.20716 -0.47065,0.30822 -0.47065,0.30825 v 0.45056 0.45057 l 0.21951,0.2194 0.21951,0.21941 2.93962,-0.0314 2.93962,-0.0314 z m -8.73565,-1.94729 0.10186,-0.2653 -0.13414,-0.21694 -0.13414,-0.21693 -0.89752,-0.38454 -0.89752,-0.38455 -0.33586,0.24548 -0.33586,0.24548 v 0.30912 0.30914 l 0.64342,0.20033 0.64343,0.20033 0.39595,0.0889 0.39595,0.0889 0.22629,0.0229 0.22629,0.0229 z m 9.58621,-2.46682 0.24185,-0.15359 -0.58831,-0.22195 -0.58831,-0.22197 v 0.0656 0.0656 l 0.12017,0.31302 0.12017,0.313 0.22629,-0.003 0.22629,-0.003 0.24185,-0.15359 z m -10.85901,-0.33935 0.73681,0.12442 0.33464,-0.3696 0.33464,-0.3696 -1.08574,0.0177 -1.08574,0.0177 -0.44597,0.46278 -0.44598,0.46276 0.46027,-0.23527 0.46026,-0.23527 z m 1.54328,-5.3715 -0.13199,-0.13192 v 0.26384 0.26385 l 0.13199,-0.13193 0.13197,-0.13192 z m -1.61681,-5.36392 0.98988,-0.53956 0.55815,-1.11523 0.55815,-1.11522 -0.21842,-0.81076 -0.21841,-0.81076 -0.37622,-0.201235 -0.37621,-0.20125 h -0.49768 -0.49767 l -1.21825,1.013355 -1.21824,1.01334 -0.26745,0.6398 -0.26745,0.63979 0.13908,0.51081 0.13908,0.51081 0.69291,0.49051 0.69291,0.4905 0.19798,0.0123 0.19798,0.0123 0.98988,-0.53955 z m 12.45542,-0.76215 0.51175,-0.91518 -0.64113,0.12817 -0.64113,0.12816 -1.04154,0.63094 -1.04155,0.63095 v 0.15606 0.15607 h 1.17093 1.17093 z m -3.32412,-0.72149 1.41026,-0.71765 0.12405,-0.32314 0.12406,-0.32314 v -0.44785 -0.44785 l -0.38667,-0.34977 -0.38668,-0.34977 -1.24662,0.0132 -1.24662,0.0132 -1.87712,0.49519 -1.87712,0.49519 -0.25112,0.34327 -0.25112,0.34326 v 0.56482 0.56482 l 0.45469,0.45447 0.45468,0.45447 1.77254,-0.0325 1.77254,-0.0324 z m -4.27393,8.77343 -0.20494,-0.38276 v -0.66777 -0.66777 l 0.26833,-0.3668 0.26834,-0.3668 0.30806,0.11816 0.30806,0.11816 -0.18044,-0.62888 -0.18045,-0.62887 v -0.52431 -0.52431 l 0.30146,-0.11563 0.30145,-0.11562 0.39146,0.39127 0.39147,0.39128 -0.003,0.84101 -0.003,0.84099 -0.17496,0.27618 -0.17496,0.27619 -0.31024,-0.11899 -0.31024,-0.11899 0.11679,0.58367 0.1168,0.58368 -0.24651,0.59483 -0.2465,0.59484 h -0.26599 -0.26597 l -0.20495,-0.38276 z m -1.55627,-1.5466 -0.1774,-0.34629 -0.11319,-0.73659 -0.11319,-0.7366 0.3508,-0.43302 0.35081,-0.43302 0.42776,0.42756 0.42777,0.42756 v 0.58075 0.58078 l -0.19308,0.50758 -0.19308,0.50759 h -0.2949 -0.29489 z"
       style="fill:#6e6e6e;stroke-width:0.19792885" />
    <path
       inkscape:connector-curvature="0"
       id="path31272"
       d="m 108.66086,121.15284 -0.54753,-0.28393 -0.65465,-0.4044 -0.65466,-0.40441 -1.52817,-0.18451 -1.52817,-0.18452 -0.62604,-0.20092 -0.62604,-0.20093 -0.51232,-0.51208 -0.51232,-0.51208 v -0.86348 -0.86348 h 0.37517 0.37517 l 0.46623,-0.49129 0.46623,-0.49129 0.25015,-0.004 0.25015,-0.004 0.36424,-0.22735 0.36423,-0.22735 0.65565,0.22845 0.65566,0.22846 0.36326,-0.3286 0.36326,-0.32857 v -0.16722 -0.16721 h -1.02288 -1.02288 l 0.094,-0.094 0.094,-0.0939 1.03695,-0.0367 1.03695,-0.0366 0.49944,-0.59326 0.49944,-0.59328 -0.12544,-0.49954 -0.12544,-0.49956 -0.48213,-0.57271 -0.48215,-0.57272 -0.12405,-0.49405 -0.12406,-0.49405 0.22922,-0.50285 0.22923,-0.50285 -0.11955,-0.4225 -0.11954,-0.4225 -0.51021,-1.23675 -0.5102,-1.23676 h -0.33955 -0.33956 l -0.53628,0.42163 -0.53627,0.42164 -0.78751,-0.76793 -0.78751,-0.76793 -1.04514,0.0246 -1.045155,0.0246 -0.429428,0.22973 -0.42943,0.22972 v -0.21469 -0.21467 l 0.326306,-0.63328 0.326306,-0.63329 0.514251,-0.69258 0.51425,-0.6926 1.27913,-1.56157 1.27913,-1.561585 0.78385,-0.350767 0.78385,-0.350775 0.9075,0.08401 0.9075,0.08401 0.52878,0.213338 0.52877,0.213334 0.29986,-0.067 0.29986,-0.067 -0.87813,-1.845317 -0.87813,-1.845319 V 95.075954 94.81805 l 0.54443,-0.208623 0.54444,-0.208621 0.42883,-0.12027 0.42882,-0.120271 0.12141,1.343765 0.12142,1.343765 0.19382,1.080108 0.19382,1.080109 0.18392,0.183823 0.18391,0.18383 1.29045,-0.324 1.29044,-0.323991 h 1.02684 1.02683 l 1.33187,0.396451 1.33186,0.39647 0.57025,0.44283 0.57025,0.442825 0.35049,0.39747 0.35049,0.39747 0.30725,0.56203 0.30726,0.56204 -0.1071,0.27896 -0.1071,0.27896 h -0.39292 -0.39292 l -0.3557,0.51295 -0.35571,0.51296 -0.49493,0.53546 -0.49494,0.53546 0.3233,-0.40529 0.3233,-0.4053 0.32012,-0.6333 0.32012,-0.63328 v -0.11254 -0.11254 l -0.54443,0.13102 -0.54444,0.13101 -0.89241,0.44544 -0.89241,0.44543 -0.54292,0.54266 -0.54291,0.54265 v 0.1233 0.12329 l -0.37888,0.23651 -0.37887,0.2365 -1.15544,-0.41251 -1.15543,-0.41252 -1.59737,0.008 -1.59737,0.008 -0.87733,0.22494 -0.87732,0.22496 -0.24112,0.0806 -0.24112,0.0806 0.62391,1.33264 0.62392,1.33265 0.0637,1.10006 0.0637,1.10006 -0.18518,-0.39577 -0.18519,-0.39577 -0.0139,0.5373 -0.0139,0.53729 0.58043,0.66077 0.58044,0.66076 0.12726,0.50683 0.12727,0.50685 -0.23791,0.86756 -0.23792,0.86758 -0.13026,-0.35866 -0.13026,-0.35865 -0.33632,0.70495 -0.33633,0.70494 h -0.21286 -0.21286 l 0.12235,0.19789 0.12236,0.19788 1.81959,5.9e-4 1.81959,6e-4 1.21623,-0.51599 1.21622,-0.51598 0.87991,0.51542 0.87992,0.51541 h 0.3424 0.34241 l -0.0979,-0.3463 -0.0979,-0.34629 -0.13717,-0.89046 -0.13717,-0.89048 -0.30544,-0.79152 -0.30544,-0.79153 -0.0776,-0.0932 -0.0776,-0.0932 -0.20438,0.29109 -0.20438,0.29109 0.11345,-0.4947 0.11346,-0.4947 0.003,-0.24736 0.003,-0.2474 h 0.15691 0.15692 l 0.28182,0.93994 0.28183,0.93994 0.30367,1.07139 0.30367,1.07141 0.62921,0.21483 0.62921,0.21483 0.14009,0.14231 0.14008,0.14231 -0.669,-0.19178 -0.66901,-0.19177 h -0.0508 -0.0508 v 0.42165 0.42166 l 0.74086,-0.12017 0.74085,-0.12017 0.0676,-0.20255 0.0676,-0.20255 h 0.24343 0.24343 l 0.56901,-0.59364 0.56902,-0.59364 h 0.13124 0.13123 l 0.13574,2.40068 0.13574,2.40069 -0.3139,0.3467 -0.31391,0.34668 -1.02948,0.55059 -1.02948,0.55057 -0.69291,0.3556 -0.69292,0.35561 -2.71398,0.082 -2.71398,0.082 z m 6.35666,-1.15181 0.29916,-0.39576 0.006,-0.23448 0.006,-0.23446 -0.1965,-0.51661 -0.19651,-0.5166 -0.79256,-0.35468 -0.79257,-0.35468 -1.33715,0.34759 -1.33714,0.34756 -0.66771,0.20715 -0.66771,0.20716 -0.47065,0.30822 -0.47065,0.30825 v 0.45056 0.45057 l 0.21951,0.2194 0.21951,0.21941 2.93962,-0.0314 2.93962,-0.0314 z m -8.73565,-1.94729 0.10186,-0.2653 -0.13414,-0.21694 -0.13414,-0.21693 -0.89752,-0.38454 -0.89752,-0.38455 -0.33586,0.24548 -0.33586,0.24548 v 0.30912 0.30914 l 0.64342,0.20033 0.64343,0.20033 0.39595,0.0889 0.39595,0.0889 0.22629,0.0229 0.22629,0.0229 z m -1.34633,-13.54159 0.98988,-0.53956 0.55815,-1.11523 0.55815,-1.11522 -0.21842,-0.81076 -0.21841,-0.81076 -0.37622,-0.201235 -0.37621,-0.20125 h -0.49768 -0.49767 l -1.21825,1.013355 -1.21824,1.01334 -0.26745,0.6398 -0.26745,0.63979 0.13908,0.51081 0.13908,0.51081 0.69291,0.49051 0.69291,0.4905 0.19798,0.0123 0.19798,0.0123 0.98988,-0.53955 z m 9.1313,-1.48364 1.41026,-0.71765 0.12405,-0.32314 0.12406,-0.32314 v -0.44785 -0.44785 l -0.38667,-0.34977 -0.38668,-0.34977 -1.24662,0.0132 -1.24662,0.0132 -1.87712,0.49519 -1.87712,0.49519 -0.25112,0.34327 -0.25112,0.34326 v 0.56482 0.56482 l 0.45469,0.45447 0.45468,0.45447 1.77254,-0.0325 1.77254,-0.0324 z m -10.41815,11.85181 v -0.0747 l 0.34646,-0.27159 0.34646,-0.27157 -0.27171,0.3463 -0.27172,0.34629 h -0.0748 -0.0747 z m 6.13235,-3.20321 -0.19307,-0.50759 v -0.43779 -0.4378 l 0.3148,-0.44923 0.3148,-0.44921 0.27913,0.23153 0.27912,0.23155 v 0.9256 0.9256 l -0.23757,0.23746 -0.23757,0.23747 h -0.16328 -0.16328 z m 3.23333,-1.47123 0.5481,-0.69259 0.31307,-0.69259 0.31307,-0.69259 -0.10527,-1.38516 -0.10528,-1.38518 0.17002,0.69259 0.17003,0.69259 0.0301,0.79152 0.0301,0.79153 -0.38271,1.03859 -0.38271,1.03858 -0.13048,-0.13041 -0.13047,-0.13042 -0.44284,0.37805 -0.44284,0.37807 z m -4.60877,0.20132 -0.29148,-0.18011 -0.005,-1.14339 -0.005,-1.14337 0.36749,-0.073 0.36749,-0.073 0.1835,0.18343 0.18351,0.18342 0.0189,0.94045 0.0189,0.94045 -0.27292,0.2727 -0.27292,0.27271 -0.29148,-0.18013 z m 2.62186,-0.56394 -0.23002,-0.1421 -0.21712,-0.96839 -0.21713,-0.96838 0.10112,-0.26337 0.10111,-0.26338 h 0.3828 0.38279 l 0.21735,0.62318 0.21735,0.62317 v 0.53989 0.53988 l -0.25412,0.2108 -0.25411,0.2108 z m 4.49978,-4.96167 v -0.17936 l 0.39596,0.10348 0.39594,0.10347 v 0.0759 0.0759 h -0.39594 -0.39596 z m -0.8414,-0.14958 0.24747,-0.0998 0.24747,0.0998 0.24747,0.0998 h -0.49494 -0.49494 z"
       style="fill:#6e6e6e;stroke-width:0.19792885" />
    <path
       inkscape:connector-curvature="0"
       id="path31270"
       d="m 108.75093,121.19952 -0.4498,-0.23328 -0.8909,-0.51383 -0.89088,-0.51383 -1.18786,-0.12788 -1.18786,-0.12788 -0.77369,-0.20324 -0.77369,-0.20323 -0.56265,-0.56237 -0.56264,-0.56239 v -0.7181 -0.71811 l 0.59811,-0.20839 0.5981,-0.2084 0.20076,-0.37495 0.20077,-0.37495 h 0.29268 0.29268 l 0.36424,-0.22736 0.36423,-0.22736 0.65565,0.22846 0.65566,0.22845 0.36326,-0.32859 0.36326,-0.32859 v -0.16721 -0.16721 h -1.02288 -1.02288 l 0.094,-0.094 0.094,-0.094 1.03695,-0.0367 1.03695,-0.0366 0.50043,-0.59444 0.50043,-0.59445 -0.095,-0.36326 -0.0951,-0.36325 h 0.17945 0.17944 l -7.5e-4,0.34629 -7.5e-4,0.34629 -0.22306,0.79154 -0.22306,0.79152 -0.12922,-0.35866 -0.12922,-0.35865 -0.33633,0.70495 -0.33632,0.70494 h -0.21287 -0.21286 l 0.12235,0.19789 0.12236,0.19788 1.81959,5.9e-4 1.81959,6e-4 1.21623,-0.51599 1.21623,-0.51599 0.87991,0.51542 0.87991,0.51542 h 0.34241 0.3424 l -0.0979,-0.34629 -0.0979,-0.3463 -0.13717,-0.89047 -0.13716,-0.89047 -0.30545,-0.79153 -0.30544,-0.79152 -0.0776,-0.0932 -0.0776,-0.0932 -0.18417,0.29109 -0.18419,0.2911 0.0167,-0.29683 0.0167,-0.29682 0.15099,-0.49471 0.15099,-0.4947 0.14068,0.39576 0.1407,0.39577 0.25859,0.59969 0.25859,0.59969 0.24963,1.11496 0.24964,1.11494 0.65823,0.12343 0.65823,0.12343 0.10976,0.1775 0.10975,0.1775 -0.64594,-0.18517 -0.64593,-0.1852 h -0.0508 -0.0508 v 0.36277 0.36279 l 0.11005,0.11 0.11006,0.11001 0.68185,-0.20917 0.68185,-0.20917 v -0.16468 -0.16468 l 0.24747,-7.5e-4 0.24746,-7.4e-4 0.62693,-0.58736 0.62693,-0.58735 0.10889,0.73668 0.10889,0.73668 0.12497,1.68325 0.12498,1.68325 -0.36585,0.31969 -0.36586,0.31966 -1.18785,0.65576 -1.18786,0.65574 -0.49494,0.2394 -0.49494,0.23939 -2.7178,0.0934 -2.7178,0.0934 -0.44981,-0.23328 z m 6.8417,-1.31594 0.92128,-0.64906 0.11292,-0.35562 0.11293,-0.35561 -0.26247,-0.54737 -0.26246,-0.54736 -0.71785,-0.23507 -0.71784,-0.23507 -1.16026,-0.23795 -1.16026,-0.23795 -1.45376,0.24666 -1.45376,0.24665 -0.87246,0.83557 -0.87245,0.83555 v 0.60814 0.60814 l 0.58658,0.37121 0.58657,0.37122 2.84601,-0.0365 2.84601,-0.0365 z m -9.27884,-1.1659 0.51315,-0.19501 0.16546,-0.44709 0.16547,-0.44709 -0.1753,-0.50263 -0.1753,-0.50263 -0.63891,-0.33414 -0.63889,-0.33415 -0.55174,-0.201 -0.55173,-0.201 -0.75348,0.47541 -0.75347,0.47543 -0.25264,0.60963 -0.25264,0.60964 0.31562,0.48146 0.31562,0.48149 0.45033,0.0864 0.45032,0.0864 0.9275,0.0269 0.9275,0.0269 z m -2.6651,-3.83736 v -0.0747 l 0.34646,-0.27159 0.34646,-0.27157 -0.27171,0.3463 -0.27172,0.34629 h -0.0748 -0.0747 z m 3.29118,-3.29617 -0.51963,-0.61725 -0.12135,-0.48329 -0.12136,-0.4833 0.23181,-0.55938 0.23182,-0.55938 -0.11345,-0.57461 -0.11344,-0.57459 0.18711,0.39576 0.1871,0.39576 v 0.89047 0.89047 l -0.17015,-0.39576 -0.17014,-0.39576 -0.0139,0.53728 -0.0139,0.5373 0.62028,0.70612 0.62027,0.70612 -0.1007,0.10065 -0.1007,0.10065 z m 2.84117,0.0929 -0.19307,-0.50759 v -0.4378 -0.43779 l 0.3148,-0.44923 0.3148,-0.44922 0.27913,0.23154 0.27912,0.23154 v 0.92561 0.9256 l -0.23757,0.23746 -0.23757,0.23747 h -0.16328 -0.16328 z m 3.13966,-1.3723 0.4423,-0.59364 0.31701,-0.45139 0.31701,-0.45137 0.14523,-1.13168 0.14522,-1.13168 0.0192,0.98941 0.0192,0.98941 -0.37263,0.7878 -0.37264,0.7878 0.11298,0.18271 0.11297,0.18272 -0.24103,-0.14889 -0.24104,-0.14891 -0.42308,0.36568 -0.42307,0.36567 0.44229,-0.59364 z m -4.5151,0.10243 -0.29148,-0.18011 -0.005,-1.14339 -0.005,-1.14337 0.36749,-0.073 0.36749,-0.073 0.1835,0.18343 0.18351,0.18342 0.0189,0.94045 0.0189,0.94045 -0.27292,0.2727 -0.27292,0.27271 -0.29148,-0.18013 z m 2.62186,-0.56394 -0.23002,-0.1421 -0.21712,-0.96839 -0.21713,-0.96838 0.10112,-0.26337 0.10111,-0.26338 h 0.3828 0.38279 l 0.21735,0.62318 0.21735,0.62317 v 0.53989 0.53988 l -0.25412,0.2108 -0.25411,0.2108 z m -8.16689,-4.11446 -0.64432,-0.65866 -0.71694,-0.13444 -0.71694,-0.13444 -0.843565,0.3032 -0.843558,0.30321 v -0.18319 -0.18319 l 0.311108,-0.60133 0.311108,-0.60134 1.160377,-1.51607 1.16037,-1.51607 0.65676,-0.7172 0.65676,-0.717205 0.57426,-0.363968 0.57427,-0.363968 1.1745,0.04415 1.17451,0.04415 0.36646,0.196029 0.36645,0.196027 h 0.39887 0.39886 l -0.30172,-0.742055 -0.30173,-0.742057 -0.57906,-1.129715 -0.57907,-1.129716 v -0.291583 -0.291594 l 0.44545,-0.141312 0.44544,-0.141312 v 0.04295 0.04295 l 0.52857,-0.200864 0.52857,-0.200867 0.12755,1.522659 0.12756,1.522658 0.21677,1.038879 0.21679,1.038879 0.41394,-0.002 0.41394,-0.002 0.97185,-0.29467 0.97185,-0.294681 h 1.00853 1.00854 l 1.33455,0.381461 1.33455,0.38146 0.64458,0.4542 0.64458,0.454185 0.39595,0.48357 0.39595,0.48356 0.24046,0.41224 0.24045,0.41224 0.007,0.24736 0.007,0.24735 h -0.50415 -0.50415 l -0.33724,0.62069 -0.33726,0.6207 -0.39594,0.42787 -0.39596,0.42789 0.22359,-0.30651 0.22361,-0.30652 0.32083,-0.6333 0.32084,-0.63329 v -0.11254 -0.11253 l -0.54443,0.13102 -0.54444,0.13101 -0.92078,0.45981 -0.92078,0.45979 -0.87118,0.89591 -0.87118,0.89589 -1.17768,-0.41928 -1.17767,-0.41929 -1.52643,0.003 -1.52643,0.003 -1.04725,0.24088 -1.04726,0.24088 -1.11127,0.54295 -1.11128,0.54295 -0.64432,-0.65867 z m 3.18759,-1.35041 0.55424,-0.49362 0.29092,-0.5623 0.29093,-0.56231 0.12108,-1.17472 0.12108,-1.17472 -0.25556,-0.479075 -0.25556,-0.47908 -0.84989,-0.2823 -0.84989,-0.282296 -0.47119,0.118203 -0.47118,0.118203 -0.61478,0.51706 -0.61478,0.517045 -0.87931,1.14219 -0.87931,1.14219 -0.1295,0.80948 -0.1295,0.80946 0.65313,0.35116 0.65312,0.35117 0.69449,0.61577 0.6945,0.61578 0.88635,-0.56185 0.88635,-0.56183 z m 7.3213,0.0576 0.67296,-0.22908 1.53432,-1.28595 1.53431,-1.28594 v -0.37784 -0.37786 l -0.21395,-0.39957 -0.21395,-0.39958 -0.82543,-0.374585 -0.82542,-0.3746 -1.20661,-0.004 -1.20662,-0.004 -1.16909,0.41104 -1.1691,0.411035 -0.93618,0.23495 -0.93619,0.23494 -0.27646,0.29396 -0.27645,0.29394 -0.11561,0.90863 -0.11561,0.9086 0.35427,0.66027 0.35426,0.66026 1.53459,0.0468 1.53457,0.0468 0.11582,0.11576 0.11583,0.11577 h 0.53139 0.53139 z m 0.60524,1.61429 v -0.49471 l 0.0999,0.24735 0.0999,0.24736 -0.0999,0.24735 -0.0999,0.24736 z m -8.45337,-0.0132 -0.1305,-0.21105 0.0944,-0.0943 0.0944,-0.0943 0.11724,0.30536 0.11723,0.30536 h -0.0811 -0.0811 z m 10.086,-1.20469 -0.14127,-0.22846 0.22857,0.14119 0.22857,0.14119 v 0.0873 0.0873 h -0.0873 -0.0873 z m -0.92149,-0.10044 0.24747,-0.0998 0.24747,0.0998 0.24747,0.0998 h -0.49494 -0.49494 z"
       style="fill:#5f5f5f;stroke-width:0.19792885" />
    <path
       inkscape:connector-curvature="0"
       id="path31268"
       d="m 108.60898,121.02685 -0.70381,-0.36031 -0.89088,-0.49083 -0.8909,-0.49082 0.5429,0.11198 0.5429,0.11199 0.90372,0.57284 0.90371,0.57284 2.61189,-0.002 2.61189,-0.002 0.68567,-0.28478 0.68566,-0.28478 0.30421,-0.24763 0.30422,-0.24761 0.77812,-0.35231 0.77813,-0.35229 -0.21992,0.26486 -0.21992,0.26486 -1.4491,0.72931 -1.4491,0.72931 -2.5628,0.059 -2.5628,0.059 -0.70379,-0.36031 z m -4.21269,-1.33901 -1.13317,-0.16598 -0.56404,-0.29155 -0.56404,-0.29154 -0.25085,-0.3021 -0.25085,-0.30212 -0.10107,-0.75316 -0.10106,-0.75317 0.71279,-0.33974 0.71279,-0.33975 v -0.20108 -0.20108 h 0.30393 0.30393 l 0.44389,-0.29072 0.44391,-0.29072 0.98445,0.30027 0.98447,0.30027 1.78178,0.0139 1.78178,0.0139 0.9568,-0.41925 0.9568,-0.41927 h 0.0826 0.0826 v 0.17375 0.17375 l -1.1735,0.43866 -1.17351,0.43865 -1.61696,-0.0173 -1.61696,-0.0173 -0.97624,-0.34656 -0.97623,-0.34657 -0.73725,0.43381 -0.73725,0.43379 -0.65932,0.35129 -0.65932,0.3513 0.11793,0.58938 0.11793,0.58937 0.40919,0.43536 0.40919,0.43534 0.86328,0.21728 0.8633,0.21726 0.55575,0.003 0.55576,0.003 0.29696,0.19182 0.29696,0.19182 -0.29696,-0.0211 -0.29696,-0.0211 z m 13.65184,-0.60183 0.24417,-0.24589 0.11083,0.11077 0.11082,0.11078 -0.35499,0.13511 -0.355,0.13511 z m 0.38422,-1.10664 -0.11725,-0.74869 -0.13416,-1.38517 -0.13415,-1.38517 0.11954,0.10891 0.11954,0.10892 0.22763,1.92922 0.22763,1.92923 -0.0958,0.0957 -0.0958,0.0957 z m -5.14258,-2.29558 -0.95062,-0.44444 0.14222,-0.14215 0.14222,-0.14215 h -0.26396 -0.26397 l 0.11645,-0.1164 0.11643,-0.11638 0.88597,0.51896 0.88596,0.51896 0.63317,0.0801 0.63318,0.08 0.52163,-0.19822 0.52163,-0.19824 0.10316,-0.13602 0.10317,-0.13604 0.64327,-0.33709 0.64327,-0.33709 v 0.10748 0.1075 l -0.44544,0.38875 -0.44545,0.38877 -0.63706,0.28607 -0.63706,0.28608 -0.74878,-0.006 -0.74876,-0.006 z m 1.37958,-0.26702 -0.13199,-0.13193 0.017,-0.51119 0.017,-0.51119 0.17442,0.58369 0.17441,0.58371 -0.0594,0.0594 -0.0594,0.0594 z m -8.4597,-0.3284 0.28423,-0.36138 -0.25294,-0.15625 -0.25294,-0.15625 0.50454,-0.0964 0.50453,-0.0965 -0.17856,0.33349 -0.17856,0.33348 -0.35727,0.28054 -0.35726,0.28055 z m 9.28047,-0.0706 0.25985,-0.1039 0.11961,0.11955 0.1196,0.11955 -0.37945,-0.0156 -0.37946,-0.0156 0.25985,-0.1039 z m -10.50886,-0.58827 0.2437,-0.0986 0.35023,0.0912 0.35023,0.0912 -0.59393,0.007 -0.59393,0.007 z m 13.11966,-0.26597 v -0.26384 l 0.13199,0.13192 0.13198,0.13192 -0.13198,0.13193 -0.13199,0.13192 z m -3.69322,-0.30535 -0.11723,-0.30536 0.0983,-0.0983 0.0983,-0.0982 0.10559,0.40361 0.1056,0.40362 h -0.0867 -0.0867 z m -7.05483,-0.2883 0.10355,-0.39575 h 0.0759 0.0759 v 0.39575 0.39577 h -0.17945 -0.17944 z m 6.80417,-0.52798 -0.0156,-0.23117 -0.11394,-0.36248 -0.11393,-0.36248 0.22693,0.35375 0.22693,0.35375 -0.0974,0.23989 -0.0974,0.23991 -0.0156,-0.23117 z m -6.5332,-0.37897 0.0156,-0.37928 0.10398,0.25972 0.10398,0.25972 -0.11961,0.11956 -0.11961,0.11955 0.0156,-0.37927 z m 2.13924,-1.268 -0.23814,-0.79444 0.23167,-0.5082 0.23167,-0.50822 0.34428,0.0655 0.34428,0.0654 0.0594,1.02475 0.0594,1.02477 -0.39723,0.21248 -0.39722,0.21249 z m 3.82641,0.18983 -0.23998,-0.38408 0.0162,-0.34898 0.0162,-0.34899 0.29078,0.66615 0.29078,0.66613 -0.067,0.067 -0.067,0.067 -0.23998,-0.38408 z m -6.47622,0.0527 -0.19798,-0.14539 -0.29096,-0.39577 -0.29098,-0.39576 0.53845,0.47973 0.53843,0.47972 v 0.0645 0.0644 l -0.0495,-0.003 -0.0495,-0.003 -0.19797,-0.14538 z m 6.13147,-1.73994 0.74253,-0.97791 0.0694,-0.0748 0.0694,-0.0748 -0.21925,0.56953 -0.21926,0.56954 -0.59272,0.48321 -0.59272,0.48321 z m -4.93623,0.2484 -0.3287,-0.50141 0.0617,-0.85545 0.0617,-0.85546 0.36749,-0.0697 0.36748,-0.0697 0.18351,0.18342 0.18351,0.18343 0.0189,0.94045 0.0189,0.94045 -0.30286,0.30272 -0.30286,0.30271 -0.32869,-0.5014 z m -2.0705,-0.2534 0.0156,-0.37927 0.10398,0.25971 0.10398,0.25973 -0.11961,0.11955 -0.11961,0.11955 0.0156,-0.37927 z m 0.38032,-0.0824 v -0.26384 l 0.13199,0.13192 0.13198,0.13192 -0.13198,0.13193 -0.13199,0.13192 z m 4.19235,-0.3463 -0.17706,-0.34628 -0.1215,-0.64096 -0.12148,-0.64094 0.11479,-0.29899 0.11478,-0.29899 h 0.36682 0.36683 l 0.23188,0.77359 0.23189,0.7736 -0.12873,0.51264 -0.12872,0.51263 h -0.28622 -0.28623 z m 3.33073,-1.23676 v -0.26383 l 0.13199,0.13191 0.13198,0.13192 -0.13198,0.13192 -0.13199,0.13193 z m -10.96928,-2.27538 -0.31907,-0.48672 -0.62745,-0.32432 -0.62745,-0.32432 -0.97545,0.11548 -0.975457,0.11546 -0.276003,0.22896 -0.276003,0.22896 v -0.22211 -0.22211 h 0.20966 0.209659 l -0.106947,-0.17297 -0.106947,-0.17296 0.760528,-1.16273 0.76052,-1.16276 0.63522,-0.79152 0.63522,-0.79153 0.89644,-0.939925 0.89646,-0.939943 h 0.16294 0.16294 l -1.12381,1.137818 -1.12382,1.13782 -1.03726,1.51527 -1.037265,1.51528 -0.101994,0.26565 -0.101994,0.26568 h 1.304253 1.30424 l 0.65425,0.71357 0.65425,0.71357 0.32042,-0.17924 0.32041,-0.17922 v 0.1018 0.1018 l -0.37572,0.20099 -0.37571,0.20097 z m 10.7713,0.0987 v -0.26385 l 0.13199,0.13192 0.13198,0.13193 -0.13198,0.13192 -0.13199,0.13191 z m -1.82301,-0.80522 -0.93214,-0.36896 -1.14661,-0.117 -1.14661,-0.11699 -1.48483,0.30142 -1.48481,0.30144 -0.49495,0.13274 -0.49493,0.13276 0.19797,-0.21345 0.19798,-0.21346 0.89089,-0.23028 0.89089,-0.2303 1.58381,-0.098 1.5838,-0.098 1.07899,0.24107 1.079,0.24106 0.36731,0.22429 0.36732,0.22431 0.19032,-0.33467 0.19033,-0.33467 1.20182,-0.91357 1.20183,-0.91356 0.49053,-0.18641 0.49052,-0.18642 h 1.08717 1.08717 l -0.35765,-0.6158 -0.35765,-0.6158 -0.77619,-0.66885 -0.7762,-0.668835 -1.0625,-0.39735 -1.06251,-0.39734 -1.32892,0.002 -1.3289,0.002 -1.08887,0.29213 -1.08887,0.29212 -0.71823,0.002 -0.71823,0.002 -0.6676,-0.27799 -0.6676,-0.27799 -0.94038,-0.14025 -0.94039,-0.140236 v -0.168626 -0.169204 l 0.24747,0.08167 0.24747,0.08167 0.69292,0.109249 0.69291,0.109249 0.64976,0.123078 0.64975,0.12308 -0.39638,-1.005162 -0.39639,-1.005162 -0.51743,-0.989105 -0.51744,-0.989105 0.1239,-0.20037 0.12389,-0.200369 0.78487,-0.235041 0.78487,-0.23504 0.0738,0.08118 0.0739,0.08118 0.1326,1.484115 0.13261,1.484114 0.19802,0.791528 0.19803,0.791527 0.0788,0.23651 0.0788,0.23652 0.6538,-0.19182 0.65379,-0.19182 0.69291,-0.143633 0.69292,-0.143638 1.28684,0.01066 1.28684,0.01066 1.02508,0.346791 1.02508,0.3468 0.79296,0.574145 0.79296,0.57414 0.53223,0.90776 0.53223,0.90773 -0.0776,0.0775 -0.0776,0.0775 -1.24914,0.0969 -1.24914,0.0969 -1.09176,0.65769 -1.09176,0.65769 -0.67369,0.74206 -0.67368,0.74205 -0.05,-0.0203 -0.05,-0.0203 z m 2.77577,-0.51726 0.25985,-0.10389 0.11961,0.11956 0.11961,0.11955 -0.37946,-0.0156 -0.37945,-0.0156 z m 2.61081,-1.04043 v -0.18621 l 0.19571,-0.12089 0.19571,-0.1209 -0.11791,0.30709 -0.1179,0.30711 h -0.0778 -0.0778 z m -12.80244,-4.89276 0.13198,-0.131922 0.13199,0.131922 0.13198,0.131921 h -0.26397 -0.26396 z"
       style="fill:#434343;stroke-width:0.19792885" />
  </g>
  <animateTransform attributeType="xml" attributeName="transform" type="rotate" from="0 8.425116062164307 8.459185183048248" to="360 8.425116062164307 8.459185183048248" dur="2s" additive="sum" repeatCount="indefinite" />
</svg>
